<?xml version="1.0" encoding="utf-8"?>
<!-- Generator: Adobe Illustrator 16.0.0, SVG Export Plug-In . SVG Version: 6.00 Build 0)  -->
<!DOCTYPE svg PUBLIC "-//W3C//DTD SVG 1.1//EN" "http://www.w3.org/Graphics/SVG/1.1/DTD/svg11.dtd">
<svg version="1.1" id="Layer_1" xmlns="http://www.w3.org/2000/svg" xmlns:xlink="http://www.w3.org/1999/xlink" x="0px" y="0px"
	 width="467.977px" height="833.937px" viewBox="258.104 19.635 467.977 833.937"
	 enable-background="new 258.104 19.635 467.977 833.937" xml:space="preserve">
<title>Toilet Men</title>
<g>
	<title>Layer 1</title>
	<g id="svg_1">
		<path id="svg_3" fill="#FFFFFF" d="M118.579,19.635c-54.672,0-99.102,44.495-99.102,99.167v760.771
			c0,54.478,44.43,98.916,99.102,98.916h760.642c54.737,0,99.167-44.43,99.167-98.916V118.802c0-54.672-44.43-99.167-99.167-99.167
			H118.579L118.579,19.635z"/>
		<path id="svg_4" d="M497.043,225.929c36.85,0,66.929-29.835,66.929-66.928c0-36.971-30.087-66.993-66.929-66.993
			c-36.971,0-66.993,30.021-66.993,66.993C430.042,196.101,460.063,225.929,497.043,225.929z"/>
		<path id="svg_5" d="M406.088,772.61c0,17.358,16.875,31.601,37.602,31.601s37.603-14.242,37.603-31.601V508.577h31.534V772.61
			c0,17.358,16.682,31.601,37.417,31.601c20.734,0,37.602-14.242,37.602-31.601l0.315-455.175h31.22v167.801
			c0,33.823,52.455,33.823,52.269,0V313.729c0-37.211-34.382-73.629-86.465-73.629l-177.915-0.264
			c-47.399,0-85.575,32.604-85.575,72.89v172.51c0,33.458,52.835,33.458,52.835,0V317.435h31.793L406.088,772.61L406.088,772.61z"/>
	</g>
</g>
</svg>
