<?xml version="1.0" encoding="utf-8"?>
<!-- Generator: Adobe Illustrator 16.0.0, SVG Export Plug-In . SVG Version: 6.00 Build 0)  -->
<!DOCTYPE svg PUBLIC "-//W3C//DTD SVG 1.1//EN" "http://www.w3.org/Graphics/SVG/1.1/DTD/svg11.dtd">
<svg version="1.1" id="Layer_1" xmlns="http://www.w3.org/2000/svg" xmlns:xlink="http://www.w3.org/1999/xlink" x="0px" y="0px"
	 width="16.834px" height="17.167px" viewBox="0 0 16.834 17.167" enable-background="new 0 0 16.834 17.167" xml:space="preserve">
<g id="facebook">
	<path fill="#999999" d="M15.054,2.142c-0.976-0.976-1.95-0.976-3.646-0.976H5.695c-1.696,0-2.671,0-3.646,0.976
		c-0.975,0.975-0.975,1.95-0.975,3.646V11.5c0,1.696,0,2.672,0.975,3.647c0.976,0.975,1.95,0.975,3.646,0.975h5.712
		c1.696,0,2.671,0,3.646-0.975c0.976-0.976,0.976-1.951,0.976-3.647V5.788C16.029,4.092,16.029,3.117,15.054,2.142z"/>
	<path fill="#FFFFFF" d="M9.324,6.809V5.73c0-0.406,0.268-0.501,0.459-0.501c0.188,0,1.16,0,1.16,0V3.444L9.345,3.439
		c-1.779,0-2.183,1.331-2.183,2.183v1.188H6.134v1.838h1.028c0,2.359,0,5.203,0,5.203h2.162c0,0,0-2.871,0-5.203h1.457l0.189-1.838
		H9.324z"/>
</g>
<g id="twitter" display="none">
	<path display="inline" fill="#FFFFFF" d="M13.729,5.188c-0.384,0.185-0.791,0.303-1.224,0.359c0.44-0.282,0.777-0.727,0.938-1.262
		c-0.409,0.26-0.865,0.445-1.353,0.555c-0.386-0.447-0.938-0.724-1.548-0.724c-1.174,0-2.124,1.023-2.124,2.288
		c0,0.176,0.018,0.352,0.054,0.517C6.71,6.831,5.144,5.917,4.094,4.536C3.913,4.871,3.809,5.265,3.809,5.685
		c0,0.791,0.374,1.494,0.945,1.898C4.405,7.57,4.077,7.473,3.791,7.299c0,0.011,0,0.021,0,0.033c0,1.104,0.733,2.027,1.704,2.243
		C5.316,9.624,5.129,9.647,4.934,9.647c-0.137,0-0.266-0.008-0.397-0.04c0.269,0.914,1.054,1.574,1.984,1.589
		c-0.727,0.617-1.643,0.979-2.639,0.979c-0.171,0-0.341-0.011-0.507-0.032c0.94,0.652,2.054,1.03,3.256,1.03
		c3.906,0,6.045-3.484,6.045-6.505c0-0.097-0.004-0.196-0.008-0.293C13.081,6.047,13.442,5.645,13.729,5.188z"/>
</g>
</svg>
